<?xml version="1.0" encoding="UTF-8"?>
<svg xmlns="http://www.w3.org/2000/svg" width="816.00" height="1056.00" viewBox="0 0 816.00 1056.00">
  <rect width="100%" height="100%" fill="white"/>
  <rect x="24.00" y="24.00" width="768.00" height="1008.00" fill="none" stroke="#e3e7ec" stroke-width="0.5"/>
  <line x1="24.00" y1="24.00" x2="24.00" y2="1032.00" stroke="#7a8696" stroke-width="0.7" stroke-linecap="butt"/><line x1="43.20" y1="24.00" x2="43.20" y2="1032.00" stroke="#cfd6e0" stroke-width="0.4" stroke-linecap="butt"/><line x1="62.40" y1="24.00" x2="62.40" y2="1032.00" stroke="#cfd6e0" stroke-width="0.4" stroke-linecap="butt"/><line x1="81.60" y1="24.00" x2="81.60" y2="1032.00" stroke="#cfd6e0" stroke-width="0.4" stroke-linecap="butt"/><line x1="100.80" y1="24.00" x2="100.80" y2="1032.00" stroke="#cfd6e0" stroke-width="0.4" stroke-linecap="butt"/><line x1="120.00" y1="24.00" x2="120.00" y2="1032.00" stroke="#7a8696" stroke-width="0.7" stroke-linecap="butt"/><line x1="139.20" y1="24.00" x2="139.20" y2="1032.00" stroke="#cfd6e0" stroke-width="0.4" stroke-linecap="butt"/><line x1="158.40" y1="24.00" x2="158.40" y2="1032.00" stroke="#cfd6e0" stroke-width="0.4" stroke-linecap="butt"/><line x1="177.60" y1="24.00" x2="177.60" y2="1032.00" stroke="#cfd6e0" stroke-width="0.4" stroke-linecap="butt"/><line x1="196.80" y1="24.00" x2="196.80" y2="1032.00" stroke="#cfd6e0" stroke-width="0.4" stroke-linecap="butt"/><line x1="216.00" y1="24.00" x2="216.00" y2="1032.00" stroke="#7a8696" stroke-width="0.7" stroke-linecap="butt"/><line x1="235.20" y1="24.00" x2="235.20" y2="1032.00" stroke="#cfd6e0" stroke-width="0.4" stroke-linecap="butt"/><line x1="254.40" y1="24.00" x2="254.40" y2="1032.00" stroke="#cfd6e0" stroke-width="0.4" stroke-linecap="butt"/><line x1="273.60" y1="24.00" x2="273.60" y2="1032.00" stroke="#cfd6e0" stroke-width="0.4" stroke-linecap="butt"/><line x1="292.80" y1="24.00" x2="292.80" y2="1032.00" stroke="#cfd6e0" stroke-width="0.4" stroke-linecap="butt"/><line x1="312.00" y1="24.00" x2="312.00" y2="1032.00" stroke="#7a8696" stroke-width="0.7" stroke-linecap="butt"/><line x1="331.20" y1="24.00" x2="331.20" y2="1032.00" stroke="#cfd6e0" stroke-width="0.4" stroke-linecap="butt"/><line x1="350.40" y1="24.00" x2="350.40" y2="1032.00" stroke="#cfd6e0" stroke-width="0.4" stroke-linecap="butt"/><line x1="369.60" y1="24.00" x2="369.60" y2="1032.00" stroke="#cfd6e0" stroke-width="0.4" stroke-linecap="butt"/><line x1="388.80" y1="24.00" x2="388.80" y2="1032.00" stroke="#cfd6e0" stroke-width="0.4" stroke-linecap="butt"/><line x1="408.00" y1="24.00" x2="408.00" y2="1032.00" stroke="#7a8696" stroke-width="0.7" stroke-linecap="butt"/><line x1="427.20" y1="24.00" x2="427.20" y2="1032.00" stroke="#cfd6e0" stroke-width="0.4" stroke-linecap="butt"/><line x1="446.40" y1="24.00" x2="446.40" y2="1032.00" stroke="#cfd6e0" stroke-width="0.4" stroke-linecap="butt"/><line x1="465.60" y1="24.00" x2="465.60" y2="1032.00" stroke="#cfd6e0" stroke-width="0.4" stroke-linecap="butt"/><line x1="484.80" y1="24.00" x2="484.80" y2="1032.00" stroke="#cfd6e0" stroke-width="0.4" stroke-linecap="butt"/><line x1="504.00" y1="24.00" x2="504.00" y2="1032.00" stroke="#7a8696" stroke-width="0.7" stroke-linecap="butt"/><line x1="523.20" y1="24.00" x2="523.20" y2="1032.00" stroke="#cfd6e0" stroke-width="0.4" stroke-linecap="butt"/><line x1="542.40" y1="24.00" x2="542.40" y2="1032.00" stroke="#cfd6e0" stroke-width="0.4" stroke-linecap="butt"/><line x1="561.60" y1="24.00" x2="561.60" y2="1032.00" stroke="#cfd6e0" stroke-width="0.4" stroke-linecap="butt"/><line x1="580.80" y1="24.00" x2="580.80" y2="1032.00" stroke="#cfd6e0" stroke-width="0.4" stroke-linecap="butt"/><line x1="600.00" y1="24.00" x2="600.00" y2="1032.00" stroke="#7a8696" stroke-width="0.7" stroke-linecap="butt"/><line x1="619.20" y1="24.00" x2="619.20" y2="1032.00" stroke="#cfd6e0" stroke-width="0.4" stroke-linecap="butt"/><line x1="638.40" y1="24.00" x2="638.40" y2="1032.00" stroke="#cfd6e0" stroke-width="0.4" stroke-linecap="butt"/><line x1="657.60" y1="24.00" x2="657.60" y2="1032.00" stroke="#cfd6e0" stroke-width="0.4" stroke-linecap="butt"/><line x1="676.80" y1="24.00" x2="676.80" y2="1032.00" stroke="#cfd6e0" stroke-width="0.4" stroke-linecap="butt"/><line x1="696.00" y1="24.00" x2="696.00" y2="1032.00" stroke="#7a8696" stroke-width="0.7" stroke-linecap="butt"/><line x1="715.20" y1="24.00" x2="715.20" y2="1032.00" stroke="#cfd6e0" stroke-width="0.4" stroke-linecap="butt"/><line x1="734.40" y1="24.00" x2="734.40" y2="1032.00" stroke="#cfd6e0" stroke-width="0.4" stroke-linecap="butt"/><line x1="753.60" y1="24.00" x2="753.60" y2="1032.00" stroke="#cfd6e0" stroke-width="0.4" stroke-linecap="butt"/><line x1="772.80" y1="24.00" x2="772.80" y2="1032.00" stroke="#cfd6e0" stroke-width="0.4" stroke-linecap="butt"/><line x1="792.00" y1="24.00" x2="792.00" y2="1032.00" stroke="#7a8696" stroke-width="0.7" stroke-linecap="butt"/><line x1="792.00" y1="24.00" x2="792.00" y2="24.00" stroke="#7a8696" stroke-width="0.7" stroke-linecap="butt"/><line x1="772.80" y1="24.00" x2="792.00" y2="35.09" stroke="#cfd6e0" stroke-width="0.4" stroke-linecap="butt"/><line x1="753.60" y1="24.00" x2="792.00" y2="46.17" stroke="#cfd6e0" stroke-width="0.4" stroke-linecap="butt"/><line x1="734.40" y1="24.00" x2="792.00" y2="57.26" stroke="#cfd6e0" stroke-width="0.4" stroke-linecap="butt"/><line x1="715.20" y1="24.00" x2="792.00" y2="68.34" stroke="#cfd6e0" stroke-width="0.4" stroke-linecap="butt"/><line x1="696.00" y1="24.00" x2="792.00" y2="79.43" stroke="#7a8696" stroke-width="0.7" stroke-linecap="butt"/><line x1="676.80" y1="24.00" x2="792.00" y2="90.51" stroke="#cfd6e0" stroke-width="0.4" stroke-linecap="butt"/><line x1="657.60" y1="24.00" x2="792.00" y2="101.60" stroke="#cfd6e0" stroke-width="0.4" stroke-linecap="butt"/><line x1="638.40" y1="24.00" x2="792.00" y2="112.68" stroke="#cfd6e0" stroke-width="0.4" stroke-linecap="butt"/><line x1="619.20" y1="24.00" x2="792.00" y2="123.77" stroke="#cfd6e0" stroke-width="0.4" stroke-linecap="butt"/><line x1="600.00" y1="24.00" x2="792.00" y2="134.85" stroke="#7a8696" stroke-width="0.7" stroke-linecap="butt"/><line x1="580.80" y1="24.00" x2="792.00" y2="145.94" stroke="#cfd6e0" stroke-width="0.4" stroke-linecap="butt"/><line x1="561.60" y1="24.00" x2="792.00" y2="157.02" stroke="#cfd6e0" stroke-width="0.4" stroke-linecap="butt"/><line x1="542.40" y1="24.00" x2="792.00" y2="168.11" stroke="#cfd6e0" stroke-width="0.4" stroke-linecap="butt"/><line x1="523.20" y1="24.00" x2="792.00" y2="179.19" stroke="#cfd6e0" stroke-width="0.4" stroke-linecap="butt"/><line x1="504.00" y1="24.00" x2="792.00" y2="190.28" stroke="#7a8696" stroke-width="0.7" stroke-linecap="butt"/><line x1="484.80" y1="24.00" x2="792.00" y2="201.36" stroke="#cfd6e0" stroke-width="0.4" stroke-linecap="butt"/><line x1="465.60" y1="24.00" x2="792.00" y2="212.45" stroke="#cfd6e0" stroke-width="0.4" stroke-linecap="butt"/><line x1="446.40" y1="24.00" x2="792.00" y2="223.53" stroke="#cfd6e0" stroke-width="0.4" stroke-linecap="butt"/><line x1="427.20" y1="24.00" x2="792.00" y2="234.62" stroke="#cfd6e0" stroke-width="0.4" stroke-linecap="butt"/><line x1="408.00" y1="24.00" x2="792.00" y2="245.70" stroke="#7a8696" stroke-width="0.7" stroke-linecap="butt"/><line x1="388.80" y1="24.00" x2="792.00" y2="256.79" stroke="#cfd6e0" stroke-width="0.4" stroke-linecap="butt"/><line x1="369.60" y1="24.00" x2="792.00" y2="267.87" stroke="#cfd6e0" stroke-width="0.4" stroke-linecap="butt"/><line x1="350.40" y1="24.00" x2="792.00" y2="278.96" stroke="#cfd6e0" stroke-width="0.4" stroke-linecap="butt"/><line x1="331.20" y1="24.00" x2="792.00" y2="290.04" stroke="#cfd6e0" stroke-width="0.4" stroke-linecap="butt"/><line x1="312.00" y1="24.00" x2="792.00" y2="301.13" stroke="#7a8696" stroke-width="0.7" stroke-linecap="butt"/><line x1="292.80" y1="24.00" x2="792.00" y2="312.21" stroke="#cfd6e0" stroke-width="0.4" stroke-linecap="butt"/><line x1="273.60" y1="24.00" x2="792.00" y2="323.30" stroke="#cfd6e0" stroke-width="0.4" stroke-linecap="butt"/><line x1="254.40" y1="24.00" x2="792.00" y2="334.38" stroke="#cfd6e0" stroke-width="0.4" stroke-linecap="butt"/><line x1="235.20" y1="24.00" x2="792.00" y2="345.47" stroke="#cfd6e0" stroke-width="0.4" stroke-linecap="butt"/><line x1="216.00" y1="24.00" x2="792.00" y2="356.55" stroke="#7a8696" stroke-width="0.7" stroke-linecap="butt"/><line x1="196.80" y1="24.00" x2="792.00" y2="367.64" stroke="#cfd6e0" stroke-width="0.4" stroke-linecap="butt"/><line x1="177.60" y1="24.00" x2="792.00" y2="378.72" stroke="#cfd6e0" stroke-width="0.4" stroke-linecap="butt"/><line x1="158.40" y1="24.00" x2="792.00" y2="389.81" stroke="#cfd6e0" stroke-width="0.4" stroke-linecap="butt"/><line x1="139.20" y1="24.00" x2="792.00" y2="400.89" stroke="#cfd6e0" stroke-width="0.4" stroke-linecap="butt"/><line x1="120.00" y1="24.00" x2="792.00" y2="411.98" stroke="#7a8696" stroke-width="0.7" stroke-linecap="butt"/><line x1="100.80" y1="24.00" x2="792.00" y2="423.06" stroke="#cfd6e0" stroke-width="0.4" stroke-linecap="butt"/><line x1="81.60" y1="24.00" x2="792.00" y2="434.15" stroke="#cfd6e0" stroke-width="0.4" stroke-linecap="butt"/><line x1="62.40" y1="24.00" x2="792.00" y2="445.23" stroke="#cfd6e0" stroke-width="0.4" stroke-linecap="butt"/><line x1="43.20" y1="24.00" x2="792.00" y2="456.32" stroke="#cfd6e0" stroke-width="0.4" stroke-linecap="butt"/><line x1="24.00" y1="24.00" x2="792.00" y2="467.41" stroke="#7a8696" stroke-width="0.7" stroke-linecap="butt"/><line x1="24.00" y1="35.09" x2="792.00" y2="478.49" stroke="#cfd6e0" stroke-width="0.4" stroke-linecap="butt"/><line x1="24.00" y1="46.17" x2="792.00" y2="489.58" stroke="#cfd6e0" stroke-width="0.4" stroke-linecap="butt"/><line x1="24.00" y1="57.26" x2="792.00" y2="500.66" stroke="#cfd6e0" stroke-width="0.4" stroke-linecap="butt"/><line x1="24.00" y1="68.34" x2="792.00" y2="511.75" stroke="#cfd6e0" stroke-width="0.4" stroke-linecap="butt"/><line x1="24.00" y1="79.43" x2="792.00" y2="522.83" stroke="#7a8696" stroke-width="0.7" stroke-linecap="butt"/><line x1="24.00" y1="90.51" x2="792.00" y2="533.92" stroke="#cfd6e0" stroke-width="0.4" stroke-linecap="butt"/><line x1="24.00" y1="101.60" x2="792.00" y2="545.00" stroke="#cfd6e0" stroke-width="0.4" stroke-linecap="butt"/><line x1="24.00" y1="112.68" x2="792.00" y2="556.09" stroke="#cfd6e0" stroke-width="0.4" stroke-linecap="butt"/><line x1="24.00" y1="123.77" x2="792.00" y2="567.17" stroke="#cfd6e0" stroke-width="0.4" stroke-linecap="butt"/><line x1="24.00" y1="134.85" x2="792.00" y2="578.26" stroke="#7a8696" stroke-width="0.7" stroke-linecap="butt"/><line x1="24.00" y1="145.94" x2="792.00" y2="589.34" stroke="#cfd6e0" stroke-width="0.4" stroke-linecap="butt"/><line x1="24.00" y1="157.02" x2="792.00" y2="600.43" stroke="#cfd6e0" stroke-width="0.4" stroke-linecap="butt"/><line x1="24.00" y1="168.11" x2="792.00" y2="611.51" stroke="#cfd6e0" stroke-width="0.4" stroke-linecap="butt"/><line x1="24.00" y1="179.19" x2="792.00" y2="622.60" stroke="#cfd6e0" stroke-width="0.4" stroke-linecap="butt"/><line x1="24.00" y1="190.28" x2="792.00" y2="633.68" stroke="#7a8696" stroke-width="0.7" stroke-linecap="butt"/><line x1="24.00" y1="201.36" x2="792.00" y2="644.77" stroke="#cfd6e0" stroke-width="0.4" stroke-linecap="butt"/><line x1="24.00" y1="212.45" x2="792.00" y2="655.85" stroke="#cfd6e0" stroke-width="0.4" stroke-linecap="butt"/><line x1="24.00" y1="223.53" x2="792.00" y2="666.94" stroke="#cfd6e0" stroke-width="0.4" stroke-linecap="butt"/><line x1="24.00" y1="234.62" x2="792.00" y2="678.02" stroke="#cfd6e0" stroke-width="0.4" stroke-linecap="butt"/><line x1="24.00" y1="245.70" x2="792.00" y2="689.11" stroke="#7a8696" stroke-width="0.7" stroke-linecap="butt"/><line x1="24.00" y1="256.79" x2="792.00" y2="700.19" stroke="#cfd6e0" stroke-width="0.4" stroke-linecap="butt"/><line x1="24.00" y1="267.87" x2="792.00" y2="711.28" stroke="#cfd6e0" stroke-width="0.4" stroke-linecap="butt"/><line x1="24.00" y1="278.96" x2="792.00" y2="722.36" stroke="#cfd6e0" stroke-width="0.4" stroke-linecap="butt"/><line x1="24.00" y1="290.04" x2="792.00" y2="733.45" stroke="#cfd6e0" stroke-width="0.4" stroke-linecap="butt"/><line x1="24.00" y1="301.13" x2="792.00" y2="744.53" stroke="#7a8696" stroke-width="0.7" stroke-linecap="butt"/><line x1="24.00" y1="312.21" x2="792.00" y2="755.62" stroke="#cfd6e0" stroke-width="0.4" stroke-linecap="butt"/><line x1="24.00" y1="323.30" x2="792.00" y2="766.70" stroke="#cfd6e0" stroke-width="0.4" stroke-linecap="butt"/><line x1="24.00" y1="334.38" x2="792.00" y2="777.79" stroke="#cfd6e0" stroke-width="0.4" stroke-linecap="butt"/><line x1="24.00" y1="345.47" x2="792.00" y2="788.87" stroke="#cfd6e0" stroke-width="0.4" stroke-linecap="butt"/><line x1="24.00" y1="356.55" x2="792.00" y2="799.96" stroke="#7a8696" stroke-width="0.7" stroke-linecap="butt"/><line x1="24.00" y1="367.64" x2="792.00" y2="811.04" stroke="#cfd6e0" stroke-width="0.4" stroke-linecap="butt"/><line x1="24.00" y1="378.72" x2="792.00" y2="822.13" stroke="#cfd6e0" stroke-width="0.4" stroke-linecap="butt"/><line x1="24.00" y1="389.81" x2="792.00" y2="833.21" stroke="#cfd6e0" stroke-width="0.4" stroke-linecap="butt"/><line x1="24.00" y1="400.89" x2="792.00" y2="844.30" stroke="#cfd6e0" stroke-width="0.4" stroke-linecap="butt"/><line x1="24.00" y1="411.98" x2="792.00" y2="855.38" stroke="#7a8696" stroke-width="0.7" stroke-linecap="butt"/><line x1="24.00" y1="423.06" x2="792.00" y2="866.47" stroke="#cfd6e0" stroke-width="0.4" stroke-linecap="butt"/><line x1="24.00" y1="434.15" x2="792.00" y2="877.55" stroke="#cfd6e0" stroke-width="0.4" stroke-linecap="butt"/><line x1="24.00" y1="445.23" x2="792.00" y2="888.64" stroke="#cfd6e0" stroke-width="0.4" stroke-linecap="butt"/><line x1="24.00" y1="456.32" x2="792.00" y2="899.72" stroke="#cfd6e0" stroke-width="0.4" stroke-linecap="butt"/><line x1="24.00" y1="467.41" x2="792.00" y2="910.81" stroke="#7a8696" stroke-width="0.7" stroke-linecap="butt"/><line x1="24.00" y1="478.49" x2="792.00" y2="921.90" stroke="#cfd6e0" stroke-width="0.4" stroke-linecap="butt"/><line x1="24.00" y1="489.58" x2="792.00" y2="932.98" stroke="#cfd6e0" stroke-width="0.4" stroke-linecap="butt"/><line x1="24.00" y1="500.66" x2="792.00" y2="944.07" stroke="#cfd6e0" stroke-width="0.4" stroke-linecap="butt"/><line x1="24.00" y1="511.75" x2="792.00" y2="955.15" stroke="#cfd6e0" stroke-width="0.4" stroke-linecap="butt"/><line x1="24.00" y1="522.83" x2="792.00" y2="966.24" stroke="#7a8696" stroke-width="0.7" stroke-linecap="butt"/><line x1="24.00" y1="533.92" x2="792.00" y2="977.32" stroke="#cfd6e0" stroke-width="0.4" stroke-linecap="butt"/><line x1="24.00" y1="545.00" x2="792.00" y2="988.41" stroke="#cfd6e0" stroke-width="0.4" stroke-linecap="butt"/><line x1="24.00" y1="556.09" x2="792.00" y2="999.49" stroke="#cfd6e0" stroke-width="0.4" stroke-linecap="butt"/><line x1="24.00" y1="567.17" x2="792.00" y2="1010.58" stroke="#cfd6e0" stroke-width="0.4" stroke-linecap="butt"/><line x1="24.00" y1="578.26" x2="792.00" y2="1021.66" stroke="#7a8696" stroke-width="0.7" stroke-linecap="butt"/><line x1="24.00" y1="589.34" x2="790.71" y2="1032.00" stroke="#cfd6e0" stroke-width="0.4" stroke-linecap="butt"/><line x1="24.00" y1="600.43" x2="771.51" y2="1032.00" stroke="#cfd6e0" stroke-width="0.4" stroke-linecap="butt"/><line x1="24.00" y1="611.51" x2="752.31" y2="1032.00" stroke="#cfd6e0" stroke-width="0.4" stroke-linecap="butt"/><line x1="24.00" y1="622.60" x2="733.11" y2="1032.00" stroke="#cfd6e0" stroke-width="0.4" stroke-linecap="butt"/><line x1="24.00" y1="633.68" x2="713.91" y2="1032.00" stroke="#7a8696" stroke-width="0.7" stroke-linecap="butt"/><line x1="24.00" y1="644.77" x2="694.71" y2="1032.00" stroke="#cfd6e0" stroke-width="0.4" stroke-linecap="butt"/><line x1="24.00" y1="655.85" x2="675.51" y2="1032.00" stroke="#cfd6e0" stroke-width="0.4" stroke-linecap="butt"/><line x1="24.00" y1="666.94" x2="656.31" y2="1032.00" stroke="#cfd6e0" stroke-width="0.4" stroke-linecap="butt"/><line x1="24.00" y1="678.02" x2="637.11" y2="1032.00" stroke="#cfd6e0" stroke-width="0.4" stroke-linecap="butt"/><line x1="24.00" y1="689.11" x2="617.91" y2="1032.00" stroke="#7a8696" stroke-width="0.7" stroke-linecap="butt"/><line x1="24.00" y1="700.19" x2="598.71" y2="1032.00" stroke="#cfd6e0" stroke-width="0.4" stroke-linecap="butt"/><line x1="24.00" y1="711.28" x2="579.51" y2="1032.00" stroke="#cfd6e0" stroke-width="0.4" stroke-linecap="butt"/><line x1="24.00" y1="722.36" x2="560.31" y2="1032.00" stroke="#cfd6e0" stroke-width="0.4" stroke-linecap="butt"/><line x1="24.00" y1="733.45" x2="541.11" y2="1032.00" stroke="#cfd6e0" stroke-width="0.4" stroke-linecap="butt"/><line x1="24.00" y1="744.53" x2="521.91" y2="1032.00" stroke="#7a8696" stroke-width="0.7" stroke-linecap="butt"/><line x1="24.00" y1="755.62" x2="502.71" y2="1032.00" stroke="#cfd6e0" stroke-width="0.4" stroke-linecap="butt"/><line x1="24.00" y1="766.70" x2="483.51" y2="1032.00" stroke="#cfd6e0" stroke-width="0.4" stroke-linecap="butt"/><line x1="24.00" y1="777.79" x2="464.31" y2="1032.00" stroke="#cfd6e0" stroke-width="0.4" stroke-linecap="butt"/><line x1="24.00" y1="788.87" x2="445.11" y2="1032.00" stroke="#cfd6e0" stroke-width="0.4" stroke-linecap="butt"/><line x1="24.00" y1="799.96" x2="425.91" y2="1032.00" stroke="#7a8696" stroke-width="0.7" stroke-linecap="butt"/><line x1="24.00" y1="811.04" x2="406.71" y2="1032.00" stroke="#cfd6e0" stroke-width="0.4" stroke-linecap="butt"/><line x1="24.00" y1="822.13" x2="387.51" y2="1032.00" stroke="#cfd6e0" stroke-width="0.4" stroke-linecap="butt"/><line x1="24.00" y1="833.21" x2="368.31" y2="1032.00" stroke="#cfd6e0" stroke-width="0.4" stroke-linecap="butt"/><line x1="24.00" y1="844.30" x2="349.11" y2="1032.00" stroke="#cfd6e0" stroke-width="0.4" stroke-linecap="butt"/><line x1="24.00" y1="855.38" x2="329.91" y2="1032.00" stroke="#7a8696" stroke-width="0.7" stroke-linecap="butt"/><line x1="24.00" y1="866.47" x2="310.71" y2="1032.00" stroke="#cfd6e0" stroke-width="0.4" stroke-linecap="butt"/><line x1="24.00" y1="877.55" x2="291.51" y2="1032.00" stroke="#cfd6e0" stroke-width="0.4" stroke-linecap="butt"/><line x1="24.00" y1="888.64" x2="272.31" y2="1032.00" stroke="#cfd6e0" stroke-width="0.4" stroke-linecap="butt"/><line x1="24.00" y1="899.72" x2="253.11" y2="1032.00" stroke="#cfd6e0" stroke-width="0.4" stroke-linecap="butt"/><line x1="24.00" y1="910.81" x2="233.91" y2="1032.00" stroke="#7a8696" stroke-width="0.7" stroke-linecap="butt"/><line x1="24.00" y1="921.90" x2="214.71" y2="1032.00" stroke="#cfd6e0" stroke-width="0.4" stroke-linecap="butt"/><line x1="24.00" y1="932.98" x2="195.51" y2="1032.00" stroke="#cfd6e0" stroke-width="0.4" stroke-linecap="butt"/><line x1="24.00" y1="944.07" x2="176.31" y2="1032.00" stroke="#cfd6e0" stroke-width="0.4" stroke-linecap="butt"/><line x1="24.00" y1="955.15" x2="157.11" y2="1032.00" stroke="#cfd6e0" stroke-width="0.4" stroke-linecap="butt"/><line x1="24.00" y1="966.24" x2="137.91" y2="1032.00" stroke="#7a8696" stroke-width="0.7" stroke-linecap="butt"/><line x1="24.00" y1="977.32" x2="118.71" y2="1032.00" stroke="#cfd6e0" stroke-width="0.4" stroke-linecap="butt"/><line x1="24.00" y1="988.41" x2="99.51" y2="1032.00" stroke="#cfd6e0" stroke-width="0.4" stroke-linecap="butt"/><line x1="24.00" y1="999.49" x2="80.31" y2="1032.00" stroke="#cfd6e0" stroke-width="0.4" stroke-linecap="butt"/><line x1="24.00" y1="1010.58" x2="61.11" y2="1032.00" stroke="#cfd6e0" stroke-width="0.4" stroke-linecap="butt"/><line x1="24.00" y1="1021.66" x2="41.91" y2="1032.00" stroke="#7a8696" stroke-width="0.7" stroke-linecap="butt"/><line x1="24.00" y1="24.00" x2="24.00" y2="24.00" stroke="#7a8696" stroke-width="0.7" stroke-linecap="butt"/><line x1="24.00" y1="35.09" x2="43.20" y2="24.00" stroke="#cfd6e0" stroke-width="0.4" stroke-linecap="butt"/><line x1="24.00" y1="46.17" x2="62.40" y2="24.00" stroke="#cfd6e0" stroke-width="0.4" stroke-linecap="butt"/><line x1="24.00" y1="57.26" x2="81.60" y2="24.00" stroke="#cfd6e0" stroke-width="0.4" stroke-linecap="butt"/><line x1="24.00" y1="68.34" x2="100.80" y2="24.00" stroke="#cfd6e0" stroke-width="0.4" stroke-linecap="butt"/><line x1="24.00" y1="79.43" x2="120.00" y2="24.00" stroke="#7a8696" stroke-width="0.7" stroke-linecap="butt"/><line x1="24.00" y1="90.51" x2="139.20" y2="24.00" stroke="#cfd6e0" stroke-width="0.4" stroke-linecap="butt"/><line x1="24.00" y1="101.60" x2="158.40" y2="24.00" stroke="#cfd6e0" stroke-width="0.4" stroke-linecap="butt"/><line x1="24.00" y1="112.68" x2="177.60" y2="24.00" stroke="#cfd6e0" stroke-width="0.4" stroke-linecap="butt"/><line x1="24.00" y1="123.77" x2="196.80" y2="24.00" stroke="#cfd6e0" stroke-width="0.4" stroke-linecap="butt"/><line x1="24.00" y1="134.85" x2="216.00" y2="24.00" stroke="#7a8696" stroke-width="0.7" stroke-linecap="butt"/><line x1="24.00" y1="145.94" x2="235.20" y2="24.00" stroke="#cfd6e0" stroke-width="0.4" stroke-linecap="butt"/><line x1="24.00" y1="157.02" x2="254.40" y2="24.00" stroke="#cfd6e0" stroke-width="0.4" stroke-linecap="butt"/><line x1="24.00" y1="168.11" x2="273.60" y2="24.00" stroke="#cfd6e0" stroke-width="0.4" stroke-linecap="butt"/><line x1="24.00" y1="179.19" x2="292.80" y2="24.00" stroke="#cfd6e0" stroke-width="0.4" stroke-linecap="butt"/><line x1="24.00" y1="190.28" x2="312.00" y2="24.00" stroke="#7a8696" stroke-width="0.7" stroke-linecap="butt"/><line x1="24.00" y1="201.36" x2="331.20" y2="24.00" stroke="#cfd6e0" stroke-width="0.4" stroke-linecap="butt"/><line x1="24.00" y1="212.45" x2="350.40" y2="24.00" stroke="#cfd6e0" stroke-width="0.4" stroke-linecap="butt"/><line x1="24.00" y1="223.53" x2="369.60" y2="24.00" stroke="#cfd6e0" stroke-width="0.4" stroke-linecap="butt"/><line x1="24.00" y1="234.62" x2="388.80" y2="24.00" stroke="#cfd6e0" stroke-width="0.4" stroke-linecap="butt"/><line x1="24.00" y1="245.70" x2="408.00" y2="24.00" stroke="#7a8696" stroke-width="0.7" stroke-linecap="butt"/><line x1="24.00" y1="256.79" x2="427.20" y2="24.00" stroke="#cfd6e0" stroke-width="0.4" stroke-linecap="butt"/><line x1="24.00" y1="267.87" x2="446.40" y2="24.00" stroke="#cfd6e0" stroke-width="0.4" stroke-linecap="butt"/><line x1="24.00" y1="278.96" x2="465.60" y2="24.00" stroke="#cfd6e0" stroke-width="0.4" stroke-linecap="butt"/><line x1="24.00" y1="290.04" x2="484.80" y2="24.00" stroke="#cfd6e0" stroke-width="0.4" stroke-linecap="butt"/><line x1="24.00" y1="301.13" x2="504.00" y2="24.00" stroke="#7a8696" stroke-width="0.7" stroke-linecap="butt"/><line x1="24.00" y1="312.21" x2="523.20" y2="24.00" stroke="#cfd6e0" stroke-width="0.4" stroke-linecap="butt"/><line x1="24.00" y1="323.30" x2="542.40" y2="24.00" stroke="#cfd6e0" stroke-width="0.4" stroke-linecap="butt"/><line x1="24.00" y1="334.38" x2="561.60" y2="24.00" stroke="#cfd6e0" stroke-width="0.4" stroke-linecap="butt"/><line x1="24.00" y1="345.47" x2="580.80" y2="24.00" stroke="#cfd6e0" stroke-width="0.4" stroke-linecap="butt"/><line x1="24.00" y1="356.55" x2="600.00" y2="24.00" stroke="#7a8696" stroke-width="0.7" stroke-linecap="butt"/><line x1="24.00" y1="367.64" x2="619.20" y2="24.00" stroke="#cfd6e0" stroke-width="0.4" stroke-linecap="butt"/><line x1="24.00" y1="378.72" x2="638.40" y2="24.00" stroke="#cfd6e0" stroke-width="0.4" stroke-linecap="butt"/><line x1="24.00" y1="389.81" x2="657.60" y2="24.00" stroke="#cfd6e0" stroke-width="0.4" stroke-linecap="butt"/><line x1="24.00" y1="400.89" x2="676.80" y2="24.00" stroke="#cfd6e0" stroke-width="0.4" stroke-linecap="butt"/><line x1="24.00" y1="411.98" x2="696.00" y2="24.00" stroke="#7a8696" stroke-width="0.7" stroke-linecap="butt"/><line x1="24.00" y1="423.06" x2="715.20" y2="24.00" stroke="#cfd6e0" stroke-width="0.4" stroke-linecap="butt"/><line x1="24.00" y1="434.15" x2="734.40" y2="24.00" stroke="#cfd6e0" stroke-width="0.4" stroke-linecap="butt"/><line x1="24.00" y1="445.23" x2="753.60" y2="24.00" stroke="#cfd6e0" stroke-width="0.4" stroke-linecap="butt"/><line x1="24.00" y1="456.32" x2="772.80" y2="24.00" stroke="#cfd6e0" stroke-width="0.4" stroke-linecap="butt"/><line x1="24.00" y1="467.41" x2="792.00" y2="24.00" stroke="#7a8696" stroke-width="0.7" stroke-linecap="butt"/><line x1="24.00" y1="478.49" x2="792.00" y2="35.09" stroke="#cfd6e0" stroke-width="0.4" stroke-linecap="butt"/><line x1="24.00" y1="489.58" x2="792.00" y2="46.17" stroke="#cfd6e0" stroke-width="0.4" stroke-linecap="butt"/><line x1="24.00" y1="500.66" x2="792.00" y2="57.26" stroke="#cfd6e0" stroke-width="0.4" stroke-linecap="butt"/><line x1="24.00" y1="511.75" x2="792.00" y2="68.34" stroke="#cfd6e0" stroke-width="0.4" stroke-linecap="butt"/><line x1="24.00" y1="522.83" x2="792.00" y2="79.43" stroke="#7a8696" stroke-width="0.7" stroke-linecap="butt"/><line x1="24.00" y1="533.92" x2="792.00" y2="90.51" stroke="#cfd6e0" stroke-width="0.4" stroke-linecap="butt"/><line x1="24.00" y1="545.00" x2="792.00" y2="101.60" stroke="#cfd6e0" stroke-width="0.4" stroke-linecap="butt"/><line x1="24.00" y1="556.09" x2="792.00" y2="112.68" stroke="#cfd6e0" stroke-width="0.4" stroke-linecap="butt"/><line x1="24.00" y1="567.17" x2="792.00" y2="123.77" stroke="#cfd6e0" stroke-width="0.4" stroke-linecap="butt"/><line x1="24.00" y1="578.26" x2="792.00" y2="134.85" stroke="#7a8696" stroke-width="0.7" stroke-linecap="butt"/><line x1="24.00" y1="589.34" x2="792.00" y2="145.94" stroke="#cfd6e0" stroke-width="0.4" stroke-linecap="butt"/><line x1="24.00" y1="600.43" x2="792.00" y2="157.02" stroke="#cfd6e0" stroke-width="0.4" stroke-linecap="butt"/><line x1="24.00" y1="611.51" x2="792.00" y2="168.11" stroke="#cfd6e0" stroke-width="0.4" stroke-linecap="butt"/><line x1="24.00" y1="622.60" x2="792.00" y2="179.19" stroke="#cfd6e0" stroke-width="0.4" stroke-linecap="butt"/><line x1="24.00" y1="633.68" x2="792.00" y2="190.28" stroke="#7a8696" stroke-width="0.7" stroke-linecap="butt"/><line x1="24.00" y1="644.77" x2="792.00" y2="201.36" stroke="#cfd6e0" stroke-width="0.4" stroke-linecap="butt"/><line x1="24.00" y1="655.85" x2="792.00" y2="212.45" stroke="#cfd6e0" stroke-width="0.4" stroke-linecap="butt"/><line x1="24.00" y1="666.94" x2="792.00" y2="223.53" stroke="#cfd6e0" stroke-width="0.4" stroke-linecap="butt"/><line x1="24.00" y1="678.02" x2="792.00" y2="234.62" stroke="#cfd6e0" stroke-width="0.4" stroke-linecap="butt"/><line x1="24.00" y1="689.11" x2="792.00" y2="245.70" stroke="#7a8696" stroke-width="0.7" stroke-linecap="butt"/><line x1="24.00" y1="700.19" x2="792.00" y2="256.79" stroke="#cfd6e0" stroke-width="0.4" stroke-linecap="butt"/><line x1="24.00" y1="711.28" x2="792.00" y2="267.87" stroke="#cfd6e0" stroke-width="0.4" stroke-linecap="butt"/><line x1="24.00" y1="722.36" x2="792.00" y2="278.96" stroke="#cfd6e0" stroke-width="0.4" stroke-linecap="butt"/><line x1="24.00" y1="733.45" x2="792.00" y2="290.04" stroke="#cfd6e0" stroke-width="0.4" stroke-linecap="butt"/><line x1="24.00" y1="744.53" x2="792.00" y2="301.13" stroke="#7a8696" stroke-width="0.7" stroke-linecap="butt"/><line x1="24.00" y1="755.62" x2="792.00" y2="312.21" stroke="#cfd6e0" stroke-width="0.4" stroke-linecap="butt"/><line x1="24.00" y1="766.70" x2="792.00" y2="323.30" stroke="#cfd6e0" stroke-width="0.4" stroke-linecap="butt"/><line x1="24.00" y1="777.79" x2="792.00" y2="334.38" stroke="#cfd6e0" stroke-width="0.4" stroke-linecap="butt"/><line x1="24.00" y1="788.87" x2="792.00" y2="345.47" stroke="#cfd6e0" stroke-width="0.4" stroke-linecap="butt"/><line x1="24.00" y1="799.96" x2="792.00" y2="356.55" stroke="#7a8696" stroke-width="0.7" stroke-linecap="butt"/><line x1="24.00" y1="811.04" x2="792.00" y2="367.64" stroke="#cfd6e0" stroke-width="0.4" stroke-linecap="butt"/><line x1="24.00" y1="822.13" x2="792.00" y2="378.72" stroke="#cfd6e0" stroke-width="0.4" stroke-linecap="butt"/><line x1="24.00" y1="833.21" x2="792.00" y2="389.81" stroke="#cfd6e0" stroke-width="0.4" stroke-linecap="butt"/><line x1="24.00" y1="844.30" x2="792.00" y2="400.89" stroke="#cfd6e0" stroke-width="0.4" stroke-linecap="butt"/><line x1="24.00" y1="855.38" x2="792.00" y2="411.98" stroke="#7a8696" stroke-width="0.7" stroke-linecap="butt"/><line x1="24.00" y1="866.47" x2="792.00" y2="423.06" stroke="#cfd6e0" stroke-width="0.4" stroke-linecap="butt"/><line x1="24.00" y1="877.55" x2="792.00" y2="434.15" stroke="#cfd6e0" stroke-width="0.4" stroke-linecap="butt"/><line x1="24.00" y1="888.64" x2="792.00" y2="445.23" stroke="#cfd6e0" stroke-width="0.4" stroke-linecap="butt"/><line x1="24.00" y1="899.72" x2="792.00" y2="456.32" stroke="#cfd6e0" stroke-width="0.4" stroke-linecap="butt"/><line x1="24.00" y1="910.81" x2="792.00" y2="467.41" stroke="#7a8696" stroke-width="0.7" stroke-linecap="butt"/><line x1="24.00" y1="921.90" x2="792.00" y2="478.49" stroke="#cfd6e0" stroke-width="0.4" stroke-linecap="butt"/><line x1="24.00" y1="932.98" x2="792.00" y2="489.58" stroke="#cfd6e0" stroke-width="0.4" stroke-linecap="butt"/><line x1="24.00" y1="944.07" x2="792.00" y2="500.66" stroke="#cfd6e0" stroke-width="0.4" stroke-linecap="butt"/><line x1="24.00" y1="955.15" x2="792.00" y2="511.75" stroke="#cfd6e0" stroke-width="0.4" stroke-linecap="butt"/><line x1="24.00" y1="966.24" x2="792.00" y2="522.83" stroke="#7a8696" stroke-width="0.7" stroke-linecap="butt"/><line x1="24.00" y1="977.32" x2="792.00" y2="533.92" stroke="#cfd6e0" stroke-width="0.4" stroke-linecap="butt"/><line x1="24.00" y1="988.41" x2="792.00" y2="545.00" stroke="#cfd6e0" stroke-width="0.4" stroke-linecap="butt"/><line x1="24.00" y1="999.49" x2="792.00" y2="556.09" stroke="#cfd6e0" stroke-width="0.4" stroke-linecap="butt"/><line x1="24.00" y1="1010.58" x2="792.00" y2="567.17" stroke="#cfd6e0" stroke-width="0.4" stroke-linecap="butt"/><line x1="24.00" y1="1021.66" x2="792.00" y2="578.26" stroke="#7a8696" stroke-width="0.7" stroke-linecap="butt"/><line x1="25.29" y1="1032.00" x2="792.00" y2="589.34" stroke="#cfd6e0" stroke-width="0.4" stroke-linecap="butt"/><line x1="44.49" y1="1032.00" x2="792.00" y2="600.43" stroke="#cfd6e0" stroke-width="0.4" stroke-linecap="butt"/><line x1="63.69" y1="1032.00" x2="792.00" y2="611.51" stroke="#cfd6e0" stroke-width="0.4" stroke-linecap="butt"/><line x1="82.89" y1="1032.00" x2="792.00" y2="622.60" stroke="#cfd6e0" stroke-width="0.4" stroke-linecap="butt"/><line x1="102.09" y1="1032.00" x2="792.00" y2="633.68" stroke="#7a8696" stroke-width="0.7" stroke-linecap="butt"/><line x1="121.29" y1="1032.00" x2="792.00" y2="644.77" stroke="#cfd6e0" stroke-width="0.4" stroke-linecap="butt"/><line x1="140.49" y1="1032.00" x2="792.00" y2="655.85" stroke="#cfd6e0" stroke-width="0.4" stroke-linecap="butt"/><line x1="159.69" y1="1032.00" x2="792.00" y2="666.94" stroke="#cfd6e0" stroke-width="0.4" stroke-linecap="butt"/><line x1="178.89" y1="1032.00" x2="792.00" y2="678.02" stroke="#cfd6e0" stroke-width="0.4" stroke-linecap="butt"/><line x1="198.09" y1="1032.00" x2="792.00" y2="689.11" stroke="#7a8696" stroke-width="0.7" stroke-linecap="butt"/><line x1="217.29" y1="1032.00" x2="792.00" y2="700.19" stroke="#cfd6e0" stroke-width="0.4" stroke-linecap="butt"/><line x1="236.49" y1="1032.00" x2="792.00" y2="711.28" stroke="#cfd6e0" stroke-width="0.4" stroke-linecap="butt"/><line x1="255.69" y1="1032.00" x2="792.00" y2="722.36" stroke="#cfd6e0" stroke-width="0.4" stroke-linecap="butt"/><line x1="274.89" y1="1032.00" x2="792.00" y2="733.45" stroke="#cfd6e0" stroke-width="0.4" stroke-linecap="butt"/><line x1="294.09" y1="1032.00" x2="792.00" y2="744.53" stroke="#7a8696" stroke-width="0.7" stroke-linecap="butt"/><line x1="313.29" y1="1032.00" x2="792.00" y2="755.62" stroke="#cfd6e0" stroke-width="0.4" stroke-linecap="butt"/><line x1="332.49" y1="1032.00" x2="792.00" y2="766.70" stroke="#cfd6e0" stroke-width="0.4" stroke-linecap="butt"/><line x1="351.69" y1="1032.00" x2="792.00" y2="777.79" stroke="#cfd6e0" stroke-width="0.4" stroke-linecap="butt"/><line x1="370.89" y1="1032.00" x2="792.00" y2="788.87" stroke="#cfd6e0" stroke-width="0.4" stroke-linecap="butt"/><line x1="390.09" y1="1032.00" x2="792.00" y2="799.96" stroke="#7a8696" stroke-width="0.7" stroke-linecap="butt"/><line x1="409.29" y1="1032.00" x2="792.00" y2="811.04" stroke="#cfd6e0" stroke-width="0.4" stroke-linecap="butt"/><line x1="428.49" y1="1032.00" x2="792.00" y2="822.13" stroke="#cfd6e0" stroke-width="0.4" stroke-linecap="butt"/><line x1="447.69" y1="1032.00" x2="792.00" y2="833.21" stroke="#cfd6e0" stroke-width="0.4" stroke-linecap="butt"/><line x1="466.89" y1="1032.00" x2="792.00" y2="844.30" stroke="#cfd6e0" stroke-width="0.4" stroke-linecap="butt"/><line x1="486.09" y1="1032.00" x2="792.00" y2="855.38" stroke="#7a8696" stroke-width="0.7" stroke-linecap="butt"/><line x1="505.29" y1="1032.00" x2="792.00" y2="866.47" stroke="#cfd6e0" stroke-width="0.4" stroke-linecap="butt"/><line x1="524.49" y1="1032.00" x2="792.00" y2="877.55" stroke="#cfd6e0" stroke-width="0.4" stroke-linecap="butt"/><line x1="543.69" y1="1032.00" x2="792.00" y2="888.64" stroke="#cfd6e0" stroke-width="0.4" stroke-linecap="butt"/><line x1="562.89" y1="1032.00" x2="792.00" y2="899.72" stroke="#cfd6e0" stroke-width="0.4" stroke-linecap="butt"/><line x1="582.09" y1="1032.00" x2="792.00" y2="910.81" stroke="#7a8696" stroke-width="0.7" stroke-linecap="butt"/><line x1="601.29" y1="1032.00" x2="792.00" y2="921.90" stroke="#cfd6e0" stroke-width="0.4" stroke-linecap="butt"/><line x1="620.49" y1="1032.00" x2="792.00" y2="932.98" stroke="#cfd6e0" stroke-width="0.4" stroke-linecap="butt"/><line x1="639.69" y1="1032.00" x2="792.00" y2="944.07" stroke="#cfd6e0" stroke-width="0.4" stroke-linecap="butt"/><line x1="658.89" y1="1032.00" x2="792.00" y2="955.15" stroke="#cfd6e0" stroke-width="0.4" stroke-linecap="butt"/><line x1="678.09" y1="1032.00" x2="792.00" y2="966.24" stroke="#7a8696" stroke-width="0.7" stroke-linecap="butt"/><line x1="697.29" y1="1032.00" x2="792.00" y2="977.32" stroke="#cfd6e0" stroke-width="0.4" stroke-linecap="butt"/><line x1="716.49" y1="1032.00" x2="792.00" y2="988.41" stroke="#cfd6e0" stroke-width="0.4" stroke-linecap="butt"/><line x1="735.69" y1="1032.00" x2="792.00" y2="999.49" stroke="#cfd6e0" stroke-width="0.4" stroke-linecap="butt"/><line x1="754.89" y1="1032.00" x2="792.00" y2="1010.58" stroke="#cfd6e0" stroke-width="0.4" stroke-linecap="butt"/><line x1="774.09" y1="1032.00" x2="792.00" y2="1021.66" stroke="#7a8696" stroke-width="0.7" stroke-linecap="butt"/>
  <text x="24.00" y="1044.00" font-family="ui-monospace, Menlo, monospace" font-size="8" fill="#9aa3ad">Iso grid · letter portrait · 0.2" spacing · major every 5 · print at 100% / actual size</text>
</svg>
